<svg xmlns="http://www.w3.org/2000/svg" viewBox="0 0 64 64">
  <path fill="#edae45" stroke="#b8752d" stroke-width="2" d="M10 28c1-12 10-20 22-20s21 8 22 20H10Z"/>
  <path fill="#f5ce68" d="M15 25c3-8 9-12 17-12s14 4 17 12H15Z"/>
  <path fill="#58a846" stroke="#337c32" stroke-linejoin="round" stroke-width="2" d="m10 32 9-4 8 4 7-4 8 4 12-4v9H10v-5Z"/>
  <path fill="#f5c741" stroke="#c89226" stroke-linejoin="round" stroke-width="2" d="m12 37 40-1-8 10-25-1-7-8Z"/>
  <rect x="12" y="42" width="40" height="9" rx="4" fill="#71392d" stroke="#4e2824" stroke-width="2"/>
  <path fill="#e9a244" stroke="#b8752d" stroke-width="2" d="M10 49h44v2c0 5-4 8-9 8H19c-5 0-9-3-9-8v-2Z"/>
  <g fill="#fff1bb">
    <ellipse cx="23" cy="18" rx="2" ry="1" transform="rotate(20 23 18)"/>
    <ellipse cx="34" cy="14" rx="2" ry="1" transform="rotate(-15 34 14)"/>
    <ellipse cx="43" cy="20" rx="2" ry="1" transform="rotate(25 43 20)"/>
  </g>
</svg>
